<?xml version="1.0" standalone="no"?>
<!DOCTYPE svg PUBLIC "-//W3C//DTD SVG 20010904//EN"
 "http://www.w3.org/TR/2001/REC-SVG-20010904/DTD/svg10.dtd">
<svg version="1.0" xmlns="http://www.w3.org/2000/svg"
 width="201.000000pt" height="201.000000pt" viewBox="0 0 201.000000 201.000000"
 preserveAspectRatio="xMidYMid meet">
<metadata>
Created by potrace 1.14, written by Peter Selinger 2001-2017
</metadata>
<g transform="translate(0.000000,201.000000) scale(0.100000,-0.100000)"
fill="#000000" stroke="none">
<path d="M1560 1774 l-165 -55 -160 -1 c-158 -2 -161 -2 -215 26 -65 34 -189
78 -200 71 -4 -3 -11 -24 -14 -48 l-7 -43 -152 -78 c-84 -43 -157 -83 -164
-88 -6 -5 -17 -40 -24 -77 l-12 -68 -66 -40 c-36 -23 -85 -50 -108 -62 -23
-12 -47 -31 -54 -44 -6 -12 -26 -35 -44 -52 -32 -29 -33 -32 -25 -75 7 -37 5
-53 -12 -88 -16 -34 -19 -55 -15 -95 4 -28 11 -55 17 -61 13 -13 13 -43 1 -48
-14 -5 6 -149 29 -211 35 -93 103 -202 128 -205 37 -6 53 50 57 197 1 69 8
152 15 184 l12 57 66 0 c37 0 72 -4 79 -8 17 -11 73 -133 73 -159 0 -13 -33
-99 -74 -193 l-74 -171 18 -64 c24 -85 25 -87 73 -83 41 3 41 2 48 -35 3 -20
8 -40 11 -43 4 -3 52 0 107 7 95 11 105 15 144 49 23 20 154 130 290 243 187
155 284 228 397 298 l150 92 0 293 0 294 70 175 c39 96 70 182 70 189 0 18
-70 76 -90 75 -8 -1 -89 -26 -180 -55z m212 -1 c10 -9 18 -21 18 -27 0 -18
-133 -347 -140 -344 -11 5 -255 271 -254 277 1 8 312 109 338 110 11 1 28 -6
38 -16z m-864 -18 c1 -1 -15 -7 -36 -12 -37 -10 -38 -9 -34 13 4 20 7 21 35
12 18 -6 33 -12 35 -13z m505 -152 c180 -190 210 -223 206 -227 -11 -10 -1009
-216 -1044 -215 -94 1 -84 15 40 53 66 20 139 43 161 50 27 9 70 12 125 9 l84
-5 44 39 c65 57 55 69 -61 78 -51 4 -106 5 -123 3 -22 -2 -33 2 -40 17 -7 14
-23 21 -50 24 -34 3 -36 5 -16 10 16 4 27 17 32 35 11 39 35 64 73 72 39 8
115 46 186 93 49 32 64 37 140 42 175 11 149 19 243 -78z m-843 -52 c-26 -50
-3 -95 47 -89 21 2 29 10 37 36 13 47 31 40 31 -14 l0 -46 -76 7 c-51 5 -84 3
-98 -4 -24 -13 -26 -5 -15 60 5 28 14 40 38 52 42 21 49 21 36 -2z m109 -150
c32 -6 28 -9 -100 -69 l-134 -62 -60 10 c-33 5 -64 10 -70 10 -5 0 42 29 105
64 123 67 140 70 259 47z m113 -66 l3 -28 -153 -48 c-126 -39 -154 -45 -159
-33 -3 8 -4 17 -1 19 2 3 69 36 149 73 151 72 155 73 161 17z m868 -253 l0
-259 -134 -81 c-74 -45 -140 -82 -148 -82 -7 0 -65 29 -128 64 l-115 64 -23
217 c-12 120 -21 219 -20 220 7 5 525 113 546 114 l22 1 0 -258z m-591 6 c6
-73 15 -149 18 -168 l6 -35 -19 23 c-18 21 -23 22 -96 14 l-77 -8 -6 35 c-15
80 -55 121 -117 121 -48 0 -85 -32 -101 -89 l-12 -45 -18 93 c-10 51 -17 95
-15 96 2 2 340 78 419 94 3 0 11 -59 18 -131z m-817 25 c20 -27 47 -58 61 -71
l24 -23 65 56 c62 52 68 55 120 55 33 0 59 -5 65 -12 5 -7 17 -51 27 -98 9
-47 19 -93 22 -102 5 -16 -4 -18 -84 -18 -49 0 -143 3 -209 6 l-121 7 -16 102
c-9 56 -20 111 -23 123 -10 41 30 25 69 -25z m559 -83 c26 -14 46 -57 50 -105
l4 -40 -70 -6 c-38 -4 -73 -5 -77 -2 -5 2 -8 29 -8 59 0 45 4 59 25 79 26 27
46 31 76 15z m-632 -67 c1 -13 -3 -23 -8 -23 -11 0 -18 37 -12 70 l4 25 8 -25
c4 -14 7 -35 8 -47z m44 -83 c12 0 29 -5 37 -10 11 -7 4 -10 -27 -10 -24 0
-43 4 -43 9 0 5 -3 18 -6 28 -5 17 -5 17 6 1 6 -10 21 -18 33 -18z m127 -17
c0 -5 -4 -13 -8 -20 -6 -9 -11 -7 -20 7 -11 17 -10 20 8 20 11 0 20 -3 20 -7z
m279 -15 c-1 -7 -4 -24 -8 -38 l-7 -25 -17 32 c-22 41 -22 43 8 43 14 0 25 -6
24 -12z m71 -29 c0 -10 -4 -20 -9 -23 -5 -3 0 -53 10 -111 l19 -106 -50 -85
c-27 -46 -50 -87 -50 -89 0 -9 121 -5 139 5 14 7 23 5 36 -10 18 -19 17 -20
-7 -20 -14 0 -83 -5 -153 -10 -70 -6 -129 -9 -131 -7 -2 2 25 71 61 153 36 82
65 157 65 167 0 16 24 128 36 166 6 19 34 -5 34 -30z m140 12 c0 -12 -26 -21
-61 -21 -19 0 -29 5 -29 15 0 11 12 15 45 15 25 0 45 -4 45 -9z m-535 -22 c11
-16 19 -240 11 -292 -4 -26 -11 -47 -17 -47 -15 0 -98 176 -114 243 -25 107
-25 107 49 107 36 0 68 -5 71 -11z m893 -95 c48 -27 100 -55 115 -65 l28 -16
-221 -122 c-122 -66 -226 -121 -232 -121 -5 0 -8 6 -5 14 3 8 9 31 13 50 6 32
14 40 85 78 85 47 89 52 89 143 0 33 3 77 7 99 l6 39 14 -26 c8 -16 47 -44
101 -73z m-333 -38 c7 -106 0 -232 -15 -256 -7 -12 -11 -11 -26 1 -27 22 -50
85 -73 199 -12 58 -23 115 -26 127 -5 24 9 29 92 32 l41 1 7 -104z m339 -166
c-6 -6 -66 -57 -135 -114 -124 -104 -133 -108 -141 -58 -3 21 13 33 137 102
145 82 156 87 139 70z m-305 -202 c11 -43 11 -43 -31 -80 -23 -20 -44 -36 -46
-34 -7 8 -22 138 -16 147 3 5 22 9 43 9 37 0 39 -2 50 -42z m-135 15 c3 -10 8
-50 12 -89 l6 -72 -72 -7 c-39 -4 -75 -3 -80 1 -4 5 -12 44 -17 86 l-9 77 56
6 c30 4 60 8 65 10 23 8 34 4 39 -12z m-194 -27 c0 -19 3 -41 6 -49 4 -10 -4
-16 -26 -19 -29 -4 -31 -2 -44 41 -13 44 -12 46 8 53 47 14 56 10 56 -26z"/>
</g>
</svg>
